[Header]
FileType HTR
DataType HTRS
FileVersion 1
NumSegments 22
NumFrames 4
DataFrameRate 24
EulerRotationOrder ZYX
CalibrationUnits mm
RotationUnits Degrees
GlobalAxisofGravity Y
BoneLengthAxis Y
ScaleFactor 1.0
[SegmentNames&Hierarchy]
reference	GLOBAL
Hips	reference
Spine	Hips
Spine1	Spine
Neck	Spine1
Head	Neck
LeftShoulder	Spine1
LeftArm	LeftShoulder
LeftForeArm	LeftArm
LeftHand	LeftForeArm
RightShoulder	Spine1
RightArm	RightShoulder
RightForeArm	RightArm
RightHand	RightForeArm
LeftUpLeg	Hips
LeftLeg	LeftUpLeg
LeftFoot	LeftLeg
LeftToeBase	LeftFoot
RightUpLeg	Hips
RightLeg	RightUpLeg
RightFoot	RightLeg
RightToeBase	RightFoot
[BasePosition]
reference	0	0	0	0	0	0	1
Hips	0	0	0	0	0	0	1
Spine	0	0	0	0	-0	90	1
Spine1	0	0	0	0	0	0	1
Neck	0	0	0	-7.352327771	-7.352327771	90	1
Head	0	0	0	0	-0	90	1
LeftShoulder	0	0	0	0	0	0	1
LeftArm	0	0	0	0	0	0	1
LeftForeArm	0	0	0	0	0	0	1
LeftHand	0	0	0	0	0	0	1
RightShoulder	0	0	0	0	-0	180	1
RightArm	0	0	0	0	-0	180	1
RightForeArm	0	0	0	0	-0	180	1
RightHand	0	0	0	0	-0	180	1
LeftUpLeg	0	0	0	0	-0	-90	1
LeftLeg	0	0	0	0	-0	-90	1
LeftFoot	0	0	0	66.57146043	-66.57146043	-90	1
LeftToeBase	0	0	0	0	-90	0	1
RightUpLeg	0	0	0	0	-0	-90	1
RightLeg	0	0	0	0	-0	-90	1
RightFoot	0	0	0	66.57146043	-66.57146043	-90	1
RightToeBase	0	0	0	0	-90	0	1
[reference]
91	0	0	0	0	-0	0	1.0
92	0	0	0	0	-0	0	1.0
93	0	0	0	0	-0	0	1.0
94	0	0	0	0	-0	0	1.0
[Hips]
91	-6.165489197	8.380748749	-6.747122765	1.48298645	-134.2774048	-1.440383911	1.0
92	-6.228872299	8.388676643	-6.764487267	0.786824584	-133.0877991	-0.8069943786	1.0
93	-6.286016464	8.396757126	-6.782255173	0.09303679317	-132.0782166	-0.1121645346	1.0
94	-6.228838921	8.278717995	-6.924340248	7.989701748	-131.3029175	-4.341565132	1.0
[Spine]
91	0	0.7457100153	0	-8.988182068	0.4790227115	-87.81488037	1.0
92	0	0.7457100153	0	-8.170291901	0.756944716	-86.83811951	1.0
93	0	0.7457100153	0	-8.70275116	0.7991673946	-86.57402039	1.0
94	0	0.7457100153	0	-14.7466898	-0.4183346629	-94.79414368	1.0
[Spine1]
91	0	2.140589952	0	10.25610447	0.1773423851	-0.5021927953	1.0
92	0	2.140589952	0	10.74609852	0.09509539604	0.3938490152	1.0
93	0	2.140589952	0	11.08351517	0.180842638	-0.03421298414	1.0
94	0	2.140589952	0	11.46887207	-0.1851724386	3.471745014	1.0
[Neck]
91	0	2.32246995	0	-6.268361568	12.34916973	-94.47293854	1.0
92	0	2.32246995	0	-8.209668159	11.78246212	-94.55426788	1.0
93	0	2.32246995	0	-9.459492683	11.37534714	-93.37227631	1.0
94	0	2.32246995	0	-10.0092144	11.06868935	-91.29118347	1.0
[Head]
91	0	1.409579992	0.1818799973	-8.404309273	5.268824577	-93.80059814	1.0
92	0	1.409579992	0.1818799973	-8.265414238	4.769021988	-93.60709381	1.0
93	0	1.409579992	0.1818799973	-8.386631966	4.382022381	-93.59351349	1.0
94	0	1.409579992	0.1818799973	-8.290091515	4.043945789	-93.6038208	1.0
[LeftShoulder]
91	0.3668199778	1.946700096	-0.02662999928	-12.92745113	-12.83997726	-1.933935165	1.0
92	0.3668199778	1.946700096	-0.02662999928	-12.76240826	-11.65821266	-2.331259251	1.0
93	0.3668199778	1.946700096	-0.02662999928	-12.57164001	-11.97917652	-2.146907568	1.0
94	0.3668199778	1.946700096	-0.02662999928	-12.39449692	-12.15351105	-2.447496653	1.0
[LeftArm]
91	1.140689969	0	0	27.34647942	18.33437538	-69.25993347	1.0
92	1.140689969	0	0	29.60259819	16.53588867	-70.57926941	1.0
93	1.140689969	0	0	31.26420021	15.33264542	-72.58688354	1.0
94	1.140689969	0	0	33.59315491	14.25805664	-74.16186523	1.0
[LeftForeArm]
91	2.749800205	0	0	-68.60411835	-8.638034821	0.6507468224	1.0
92	2.749800205	0	0	-69.68753815	-8.127468109	0.7114646435	1.0
93	2.749800205	0	0	-71.38842773	-7.950304031	0.980679512	1.0
94	2.749800205	0	0	-72.76300049	-8.351133347	1.432077289	1.0
[LeftHand]
91	2.295179844	0	0	-29.67123413	36.66140366	-74.95246124	1.0
92	2.295179844	0	0	-29.99840164	37.58983994	-74.8188324	1.0
93	2.295179844	0	0	-30.04343033	37.04991531	-74.98617554	1.0
94	2.295179844	0	0	-29.79603577	36.08218384	-75.34496307	1.0
[RightShoulder]
91	-0.3601199985	1.946700096	-0.02662999928	-8.387457848	2.439762592	173.9745941	1.0
92	-0.3601199985	1.946700096	-0.02662999928	-11.25865936	2.514319897	173.1416016	1.0
93	-0.3601199985	1.946700096	-0.02662999928	-10.88396835	3.125083447	173.6347809	1.0
94	-0.3601199985	1.946700096	-0.02662999928	-9.981892586	3.499219656	174.8903503	1.0
[RightArm]
91	-1.140689969	0	0	62.39974594	5.793745041	-94.68054962	1.0
92	-1.140689969	0	0	59.17978668	1.408915877	-94.96582031	1.0
93	-1.140689969	0	0	57.07398987	0.4776850939	-96.36374664	1.0
94	-1.140689969	0	0	55.83725357	0.4763989449	-98.23608398	1.0
[RightForeArm]
91	-2.749800205	0	0	8.656337738	16.22857857	169.5375061	1.0
92	-2.749800205	0	0	19.44065285	14.70627975	171.069397	1.0
93	-2.749800205	0	0	50.88837051	14.89684582	172.5319366	1.0
94	-2.749800205	0	0	-51.30947495	13.36762428	172.3641968	1.0
[RightHand]
91	-2.295179844	0	0	-0.5516500473	12.91812515	175.5812683	1.0
92	-2.295179844	0	0	-0.06787882745	15.75944901	174.6860962	1.0
93	-2.295179844	0	0	7.185918808	-15.15222931	200.2192078	1.0
94	-2.295179844	0	0	-21.03762436	14.0911932	171.5442657	1.0
[LeftUpLeg]
91	0.9094099998	0	0	2.647870541	0.4254076779	90.85189056	1.0
92	0.9094099998	0	0	3.741366148	0.5552194118	91.13851929	1.0
93	0.9094099998	0	0	3.543787479	0.5322301984	91.17470551	1.0
94	0.9094099998	0	0	-2.790328979	-0.2372585386	90.88478088	1.0
[LeftLeg]
91	0	-4.498080254	0	4.214773655	0.5048491955	88.05020142	1.0
92	0	-4.498080254	0	3.864945412	0.4416696131	88.59017944	1.0
93	0	-4.498080254	0	3.977837563	0.4478036463	88.73937988	1.0
94	0	-4.498080254	0	4.836031437	0.813169539	82.76913452	1.0
[LeftFoot]
91	0	-3.729400158	0	-102.3714981	107.4658966	-52.93442535	1.0
92	0	-3.729400158	0	-108.7769699	110.374176	-58.85359192	1.0
93	0	-3.729400158	0	-112.2928162	110.52742	-62.27577972	1.0
94	0	-3.729400158	0	-109.3046265	113.7960815	-54.92577362	1.0
[LeftToeBase]
91	0	-0.5911099911	1.364109993	0	0	0	1.0
92	0	-0.5911099911	1.364109993	0	0	0	1.0
93	0	-0.5911099911	1.364109993	0	0	0	1.0
94	0	-0.5911099911	1.364109993	0	0	0	1.0
[RightUpLeg]
91	-0.9094099998	0	0	4.314900398	-0.7206823826	91.33870697	1.0
92	-0.9094099998	0	0	5.697411537	-0.9859390855	91.907341	1.0
93	-0.9094099998	0	0	5.973946095	-1.045993686	92.10980988	1.0
94	-0.9094099998	0	0	4.483377457	-0.1195333079	87.56973267	1.0
[RightLeg]
91	0	-4.498080254	0	5.685858727	-0.2648525238	83.09760284	1.0
92	0	-4.498080254	0	5.685858727	-0.2648525238	83.09760284	1.0
93	0	-4.498080254	0	5.685858727	-0.2648525238	83.09760284	1.0
94	0	-4.498080254	0	5.685858727	-0.2648525238	83.09760284	1.0
[RightFoot]
91	0	-3.729400158	0	77.79614258	60.97234344	126.4127045	1.0
92	0	-3.729400158	0	77.79614258	60.97234344	126.4127045	1.0
93	0	-3.729400158	0	77.79614258	60.97234344	126.4127045	1.0
94	0	-3.729400158	0	77.79614258	60.97234344	126.4127045	1.0
[RightToeBase]
91	0	-0.5911099911	1.364109993	0	0	0	1.0
92	0	-0.5911099911	1.364109993	0	0	0	1.0
93	0	-0.5911099911	1.364109993	0	0	0	1.0
94	0	-0.5911099911	1.364109993	0	0	0	1.0
[EndOfFile]
